<?xml version="1.0" encoding="UTF-8" standalone="no"?>
<svg
   version="1.0"
   width="340.27002pt"
   height="894.53638pt"
   viewBox="0 0 340.27002 894.53638"
   preserveAspectRatio="xMidYMid"
   id="svg1"
   xmlns="http://www.w3.org/2000/svg"
   xmlns:svg="http://www.w3.org/2000/svg">
  <defs
     id="defs1" />
  <g
     transform="matrix(0.1,0,0,-0.1,-570,1246)"
     fill="#000000"
     stroke="none"
     id="g1"
     style="fill:#20335a;fill-opacity:1">
    <path
       d="m 740.75607,1100.7308 c 1.00327,-1.0352 15.1102,-15.273 49.4102,-49.773 95.1,-95.70008 98.1,-98.80008 103,-105.30008 6.3,-8.6 13.1,-25.6 14.8,-36.9 1.2,-7.5 2.5,-181.5 1.5,-187.3 -0.3,-1.7 -1.1,-3.2 -1.7,-3.2 -0.6,0 -2.8,1.9 -4.7,4.1 -2,2.3 -5.6,6 -8,8.3 -2.4,2.3 -6.2,5.9 -8.5,8.1 -8.9,8.8 -185.9,187.6 -234.9,237.3 -17.5,17.7 -12.62518,28.05498 -13.72518,28.05498"
       id="path1-1"
       style="fill:#782121;stroke-width:0.1"
       transform="matrix(9.9999998,0,0,-9.9999998,0,16320)" />
    <path
       d="m 8490,11902 c -305,-306 -683,-688 -839,-847 -157,-160 -598,-607 -982,-995 -396,-401 -721,-737 -753,-780 -89,-122 -154,-255 -184,-380 -30,-124 -32,-172 -32,-893 0,-774 4,-849 45,-972 29,-86 92,-207 145,-276 64,-85 1551,-1579 1571,-1579 14,0 626,-87.1421 626,620 0,998.7178 -490.2551,1644.7921 -663.2504,1907.0757 C 7370.3761,7787.997 7286,7912 7270,7995 c -17,87 7,226 55,320 39,77 42.2444,79.758 964,1011 244.2445,246.7582 472,485 508,529 71,89 143,206 168,275 9,25 21,54 26,65 5,11 22,65 36,120 l 28,100 3,1023 c 1,562 -1,1022 -6,1022 -4,0 -562,-558 -562,-558 z"
       id="path1"
       style="fill:#20335a;fill-opacity:1" />
    <path
       d="m 853.445,1224.7365 c -30.5,-30.6 -68.30001,-68.8 -83.90001,-84.7 -15.7,-16 -59.8,-60.7 -98.2,-99.5 -39.6,-40.1 -72.1,-73.69996 -75.3,-77.99996 -8.9,-12.2 109.72373,-159.20364 106.72373,-171.70364 -3,-12.4 -13.67368,19.98241 130.57628,176.30364 23.54551,25.51587 47.2,48.49996 50.8,52.89996 7.1,8.9 14.3,20.6 16.8,27.5 0.9,2.5 2.1,5.4 2.6,6.5 0.5,1.1 2.2,6.5 3.6,12 l 2.8,10 0.3,102.3 c 0.1,56.2 -0.1,102.2 -0.6,102.2 -0.4,0 -56.2,-55.8 -56.2,-55.8 z"
       id="path1-8"
       style="fill:#20335a;fill-opacity:1;stroke-width:0.1"
       transform="matrix(9.9999998,0,0,-9.9999998,0,16320)" />
  </g>
</svg>
